# xmcd CD database file
#
# Track frame offsets:
#	150
#	8120
#	32837
#	53290
#	66547
#	86212
#	105770
#	119612
#	139075
#	157305
#	174602
#
# Disc length: 2700 seconds
#
# Revision: 0
# Processed by: cddbd v1.5.1PL0 Copyright (c) Steve Scherf et al.
# Submitted via: CDex 1.51
#
DISCID=930a8a0b
DTITLE=白鳥マイカ - 花園
DYEAR=1900
DGENRE=JPop
TTITLE0=TRIFLES
TTITLE1=ウスアカノハナ
TTITLE2=Red　Clover
TTITLE3=Listen　to　me
TTITLE4=アンドロイド
TTITLE5=線
TTITLE6=波うた
TTITLE7=Shelter
TTITLE8=Red　Clover-Reprise-
TTITLE9=その光に包まれて
TTITLE10=flashback
EXTD=
EXTT0=
EXTT1=
EXTT2=
EXTT3=
EXTT4=
EXTT5=
EXTT6=
EXTT7=
EXTT8=
EXTT9=
EXTT10=
PLAYORDER=
